<svg data-v-423bf9ae="" xmlns="http://www.w3.org/2000/svg" viewBox="0 0 364 90" class="iconLeft"><!----><!----><!----><g data-v-423bf9ae="" id="d4dcadbf-ad4a-4f43-8180-44b360279f7e" fill="#000000" transform="matrix(4.922875069913688,0,0,4.922875069913688,63.79746574008567,-1.9346909990294137)"><path d="M1.44 3.64L0.50 4.74L4.69 4.74L4.69 4.74Q4.62 4.88 4.62 5.18L4.62 5.18L4.63 9.62L4.63 9.62Q4.57 11.60 3.91 11.73L3.91 11.73L3.91 11.73Q3.25 11.85 2.67 11.59L2.67 11.59L2.67 11.59Q2.08 11.33 1.63 10.60L1.63 10.60L1.63 10.60Q1.17 9.86 1.13 9.37L1.13 9.37L0.14 10.25L0.14 10.25Q0.47 11.63 1.31 12.27L1.31 12.27L1.31 12.27Q2.15 12.90 2.92 12.70L2.92 12.70L2.92 12.70Q3.68 12.50 4.76 11.50L4.76 11.50L4.76 11.50Q5.84 10.49 5.82 9.55L5.82 9.55L5.82 9.55Q5.76 3.84 6.03 3.64L6.03 3.64L1.44 3.64ZM10.45 12.70L11.72 12.19L11.72 6.49L10.39 7.03L10.39 11.16L10.39 11.16Q9.88 11.79 9.02 11.74L9.02 11.74L9.02 11.74Q8.16 11.69 8.08 10.73L8.08 10.73L8.09 6.51L6.79 7.17L6.79 10.96L6.79 10.96Q6.79 11.91 7.45 12.35L7.45 12.35L7.45 12.35Q8.11 12.80 8.74 12.68L8.74 12.68L8.74 12.68Q9.37 12.56 10.45 11.48L10.45 11.48L10.45 12.70ZM14.42 3.60L13.10 4.16L13.10 12.74L14.42 12.14L14.42 3.60ZM16.83 6.56L15.73 7.81L19.00 7.81L15.29 12.68L19.93 12.67L20.76 11.46L16.78 11.46L20.44 6.56L16.83 6.56ZM26.39 3.60L25.07 4.16L25.07 12.74L26.39 12.14L26.39 3.60ZM28.82 6.38L27.51 6.89L27.51 12.73L28.88 12.15L28.88 8.05L28.88 8.05Q29.54 7.22 30.53 7.37L30.53 7.37L30.53 7.37Q31.51 7.53 31.48 8.48L31.48 8.48L31.47 12.77L32.81 12.18L32.81 8.25L32.81 8.25Q32.91 7.35 32.25 6.87L32.25 6.87L32.25 6.87Q31.59 6.40 30.62 6.56L30.62 6.56L30.62 6.56Q29.65 6.72 28.81 7.73L28.81 7.73L28.82 6.38ZM36.25 6.48L36.25 6.48L36.25 6.48Q35.55 6.57 35.17 6.79L35.17 6.79L35.17 6.79Q34.80 7.01 34.48 7.38L34.48 7.38L34.48 7.38Q34.17 7.76 34.15 8.38L34.15 8.38L34.15 8.38Q34.14 9.00 34.59 9.39L34.59 9.39L34.59 9.39Q35.03 9.77 36.31 10.21L36.31 10.21L36.31 10.21Q37.59 10.64 37.72 11.06L37.72 11.06L37.72 11.06Q37.86 11.48 37.54 11.76L37.54 11.76L37.54 11.76Q37.22 12.04 36.64 11.97L36.64 11.97L36.64 11.97Q36.06 11.90 35.63 11.61L35.63 11.61L35.63 11.61Q35.20 11.32 34.92 10.93L34.92 10.93L34.92 10.93Q34.64 10.55 34.58 10.27L34.58 10.27L33.52 11.06L33.52 11.06Q33.75 11.58 34.10 11.93L34.10 11.93L34.10 11.93Q34.45 12.28 34.98 12.50L34.98 12.50L34.98 12.50Q35.51 12.71 36.25 12.75L36.25 12.75L36.25 12.75Q37.00 12.78 37.57 12.37L37.57 12.37L37.57 12.37Q38.15 11.96 38.46 11.48L38.46 11.48L38.46 11.48Q38.77 11.01 38.75 10.52L38.75 10.52L38.75 10.52Q38.73 10.04 38.31 9.63L38.31 9.63L38.31 9.63Q37.90 9.21 36.53 8.75L36.53 8.75L36.53 8.75Q35.17 8.29 35.11 7.87L35.11 7.87L35.11 7.87Q35.05 7.44 35.59 7.29L35.59 7.29L35.59 7.29Q36.13 7.14 36.87 7.53L36.87 7.53L36.87 7.53Q37.61 7.93 37.56 8.16L37.56 8.16L38.42 7.25L38.42 7.25Q38.16 6.82 37.55 6.60L37.55 6.60L37.55 6.60Q36.95 6.39 36.25 6.48ZM41.19 3.55L39.93 4.14L39.93 5.58L41.19 5.06L41.19 3.55ZM41.20 6.54L39.89 7.02L39.89 12.67L41.20 12.21L41.20 6.54ZM45.12 7.38L45.12 7.38L45.12 7.38Q46.03 7.58 46.67 8.36L46.67 8.36L46.67 8.36Q47.30 9.13 47.23 9.87L47.23 9.87L47.23 9.87Q47.17 10.62 46.72 10.98L46.72 10.98L46.72 10.98Q46.27 11.33 45.29 11.06L45.29 11.06L45.29 11.06Q44.32 10.79 43.81 9.78L43.81 9.78L43.81 9.78Q43.31 8.76 43.75 7.97L43.75 7.97L43.75 7.97Q44.20 7.18 45.12 7.38ZM47.81 4.12L46.90 5.26L46.90 5.26Q47.76 5.69 47.09 6.91L47.09 6.91L47.09 6.91Q46.16 6.26 45.16 6.50L45.16 6.50L45.16 6.50Q44.16 6.73 43.52 7.33L43.52 7.33L43.52 7.33Q42.89 7.94 42.66 8.70L42.66 8.70L42.66 8.70Q42.43 9.45 42.61 10.18L42.61 10.18L42.61 10.18Q42.79 10.90 43.48 11.57L43.48 11.57L43.48 11.57Q44.16 12.24 45.51 12.29L45.51 12.29L45.51 12.29Q45.92 12.37 46.68 12.64L46.68 12.64L46.68 12.64Q47.43 12.91 47.65 13.49L47.65 13.49L47.65 13.49Q47.87 14.08 47.26 14.44L47.26 14.44L47.26 14.44Q46.66 14.81 45.29 14.55L45.29 14.55L45.29 14.55Q43.93 14.29 43.42 13.45L43.42 13.45L43.42 13.45Q42.92 12.61 43.42 12.00L43.42 12.00L43.33 11.94L43.33 11.94Q41.98 12.96 42.22 13.97L42.22 13.97L42.22 13.97Q42.46 14.98 43.60 15.34L43.60 15.34L43.60 15.34Q44.74 15.70 45.59 15.61L45.59 15.61L45.59 15.61Q46.44 15.51 47.00 15.19L47.00 15.19L47.00 15.19Q47.57 14.86 48.04 14.33L48.04 14.33L48.04 14.33Q48.51 13.79 48.58 13.13L48.58 13.13L48.58 13.13Q48.66 12.47 48.18 12.08L48.18 12.08L48.18 12.08Q47.70 11.69 46.87 11.55L46.87 11.55L46.87 11.55Q47.68 10.92 48.04 10.22L48.04 10.22L48.04 10.22Q48.41 9.53 48.20 8.59L48.20 8.59L48.20 8.59Q48.00 7.64 47.34 7.07L47.34 7.07L47.34 7.07Q48.66 5.75 48.49 4.99L48.49 4.99L48.49 4.99Q48.32 4.24 47.81 4.12L47.81 4.12ZM50.80 3.44L49.53 3.95L49.53 12.73L50.85 12.17L50.85 8.05L50.85 8.05Q51.50 7.22 52.49 7.44L52.49 7.44L52.49 7.44Q53.48 7.66 53.43 8.69L53.43 8.69L53.43 12.77L54.73 12.24L54.73 8.32L54.73 8.32Q54.67 6.56 53.24 6.47L53.24 6.47L53.24 6.47Q51.81 6.38 50.79 7.73L50.79 7.73L50.80 3.44ZM57.99 4.44L56.75 4.94L56.75 6.84L56.46 6.84L55.31 7.86L56.75 7.86L56.67 10.19L56.67 10.19Q56.68 11.87 57.56 12.42L57.56 12.42L57.56 12.42Q58.43 12.97 59.33 12.56L59.33 12.56L59.33 12.56Q60.22 12.15 60.54 11.09L60.54 11.09L60.44 10.93L60.44 10.93Q59.55 12.06 58.67 11.64L58.67 11.64L58.67 11.64Q57.80 11.22 57.95 9.78L57.95 9.78L58.00 7.85L58.84 7.85L60.91 6.79L57.98 6.79L57.99 4.44Z"></path></g><defs data-v-423bf9ae=""><linearGradient data-v-423bf9ae="" gradientTransform="rotate(25)" id="41a44c96-2b9c-46dd-bc77-ca1dea984889" x1="0%" y1="0%" x2="100%" y2="0%"><stop data-v-423bf9ae="" offset="0%" style="stop-color: rgb(54, 22, 172); stop-opacity: 1;"></stop><stop data-v-423bf9ae="" offset="100%" style="stop-color: rgb(224, 155, 237); stop-opacity: 1;"></stop></linearGradient></defs><g data-v-423bf9ae="" id="dad54ece-9a73-4e00-bec4-755ebdd0c9f8" transform="matrix(1.2106862421206221,0,0,1.2106862421206221,-36.61553750468595,-14.703315442694326)" stroke="none" fill="url(#41a44c96-2b9c-46dd-bc77-ca1dea984889)"><path d="M66.99 45.015l-11.731.025 8.607-32.209-33.621 42.9 11.732-.024-8.609 31.462z"></path></g><!----></svg>